<svg width="16" height="16" viewBox="0 0 16 16" fill="none" xmlns="http://www.w3.org/2000/svg">
<g clip-path="url(#clip0_1_296)">
<path d="M13 9.04795L8 14L3 9.04795M3 9.04795C2.6702 8.72703 2.41043 8.3413 2.23703 7.91505C2.06363 7.48879 1.98037 7.03126 1.99249 6.57124C2.00461 6.11123 2.11184 5.65871 2.30744 5.24218C2.50303 4.82565 2.78275 4.45412 3.12899 4.15101C3.47522 3.84789 3.88047 3.61975 4.3192 3.48094C4.75794 3.34214 5.22067 3.29568 5.67824 3.34449C6.13582 3.3933 6.57833 3.53633 6.97791 3.76456C7.3775 3.99279 7.7255 4.30129 8 4.67062C8.27569 4.30397 8.62409 3.99817 9.0234 3.77236C9.42271 3.54655 9.86433 3.40559 10.3206 3.3583C10.7769 3.31102 11.2381 3.35842 11.6752 3.49755C12.1123 3.63668 12.516 3.86454 12.861 4.16686C13.206 4.46919 13.4849 4.83948 13.6803 5.25455C13.8756 5.66962 13.9832 6.12054 13.9962 6.57909C14.0092 7.03764 13.9275 7.49395 13.7561 7.91946C13.5847 8.34496 13.3273 8.7305 13 9.05196" stroke="black" stroke-width="0.5" stroke-linecap="round" stroke-linejoin="round"/>
</g>
<defs>
<clipPath id="clip0_1_296">
<rect width="16" height="16" fill="white"/>
</clipPath>
</defs>
</svg>
